<svg width="38" height="236" viewBox="0 0 38 236" fill="none" xmlns="http://www.w3.org/2000/svg">
<path d="M32.4516 0.6L31.6393 2.42762L31.6679 2.44036L31.697 2.45219L32.4516 0.6ZM34.8016 2.15L36.2158 0.735786L36.2158 0.735784L34.8016 2.15ZM36.4016 4.5L38.2292 3.68772L38.2292 3.68772L36.4016 4.5ZM37.0016 36V38H39.0016V36H37.0016ZM29.1516 36H27.1516V38H29.1516V36ZM29.1516 24.4H31.1516V22.4H29.1516V24.4ZM8.75156 24.4V22.4H6.75156V24.4H8.75156ZM8.75156 36V38H10.7516V36H8.75156ZM1.00156 36H-0.998437V38H1.00156V36ZM1.55156 4.5L-0.27606 3.68772L-0.288793 3.71637L-0.300622 3.7454L1.55156 4.5ZM3.15156 2.15L1.73735 0.735783L1.73735 0.735785L3.15156 2.15ZM5.50156 0.6L6.25616 2.45218L6.28519 2.44036L6.31384 2.42762L5.50156 0.6ZM29.1516 16.6V18.6H31.1516V16.6H29.1516ZM29.1516 7.8H31.1516V5.8H29.1516V7.8ZM8.75156 7.8V5.8H6.75156V7.8H8.75156ZM8.75156 16.6H6.75156V18.6H8.75156V16.6ZM29.5516 2C30.3191 2 31.0075 2.14685 31.6393 2.42762L33.2638 -1.22762C32.0956 -1.74685 30.8507 -2 29.5516 -2V2ZM31.697 2.45219C32.3579 2.72144 32.915 3.09188 33.3874 3.56421L36.2158 0.735784C35.3548 -0.125214 34.3453 -0.788111 33.2062 -1.25219L31.697 2.45219ZM33.3873 3.56421C33.8728 4.04962 34.2691 4.62644 34.5739 5.31228L38.2292 3.68772C37.734 2.57356 37.0637 1.58372 36.2158 0.735786L33.3873 3.56421ZM34.5739 5.31228C34.8547 5.94402 35.0016 6.63245 35.0016 7.4H39.0016C39.0016 6.10088 38.7484 4.85598 38.2292 3.68772L34.5739 5.31228ZM35.0016 7.4V36H39.0016V7.4H35.0016ZM37.0016 34H29.1516V38H37.0016V34ZM31.1516 36V24.4H27.1516V36H31.1516ZM29.1516 22.4H8.75156V26.4H29.1516V22.4ZM6.75156 24.4V36H10.7516V24.4H6.75156ZM8.75156 34H1.00156V38H8.75156V34ZM3.00156 36V7.4H-0.998437V36H3.00156ZM3.00156 7.4C3.00156 6.60881 3.14076 5.9001 3.40375 5.25459L-0.300622 3.7454C-0.770971 4.8999 -0.998437 6.12452 -0.998437 7.4H3.00156ZM3.37919 5.31228C3.684 4.62644 4.08037 4.04962 4.56578 3.56421L1.73735 0.735785C0.889419 1.58372 0.219123 2.57356 -0.27606 3.68772L3.37919 5.31228ZM4.56578 3.56421C5.03811 3.09188 5.59525 2.72144 6.25616 2.45218L4.74697 -1.25219C3.60788 -0.788111 2.59835 -0.125215 1.73735 0.735783L4.56578 3.56421ZM6.31384 2.42762C6.94559 2.14685 7.63401 2 8.40156 2V-2C7.10245 -2 5.85754 -1.74685 4.68928 -1.22762L6.31384 2.42762ZM8.40156 2H29.5516V-2H8.40156V2ZM31.1516 16.6V7.8H27.1516V16.6H31.1516ZM29.1516 5.8H8.75156V9.8H29.1516V5.8ZM6.75156 7.8V16.6H10.7516V7.8H6.75156ZM8.75156 18.6H29.1516V14.6H8.75156V18.6ZM35.3992 66.45L33.5352 65.7251L33.1206 66.7914L33.8295 67.6893L35.3992 66.45ZM36.6492 68.65L34.7923 69.3928L34.7976 69.406L34.8031 69.4192L36.6492 68.65ZM36.5492 81.5L34.7216 80.6877L34.7216 80.6877L36.5492 81.5ZM34.9492 83.85L33.535 82.4358L33.535 82.4358L34.9492 83.85ZM32.5992 85.45L33.3538 87.3022L33.3828 87.2904L33.4115 87.2776L32.5992 85.45ZM1.14922 86H-0.850781V88H1.14922V86ZM1.14922 50V48H-0.850781V50H1.14922ZM31.1992 50.6L30.3869 52.4276L30.4156 52.4404L30.4446 52.4522L31.1992 50.6ZM33.5492 52.15L32.135 53.5642L32.1522 53.5815L32.1699 53.5983L33.5492 52.15ZM35.1492 54.5L33.297 55.2546L33.3089 55.2836L33.3216 55.3123L35.1492 54.5ZM8.89922 78.2H6.89922V80.2H8.89922V78.2ZM29.2992 78.2V80.2H31.2992V78.2H29.2992ZM29.2992 71.6H31.2992V69.6H29.2992V71.6ZM8.89922 71.6V69.6H6.89922V71.6H8.89922ZM8.89922 63.8H6.89922V65.8H8.89922V63.8ZM27.8992 63.8V65.8H29.8992V63.8H27.8992ZM27.8992 57.8H29.8992V55.8H27.8992V57.8ZM8.89922 57.8V55.8H6.89922V57.8H8.89922ZM33.7492 64.15C33.7492 64.9373 33.6479 65.4353 33.5352 65.7251L37.2632 67.1749C37.6172 66.2647 37.7492 65.2293 37.7492 64.15H33.7492ZM33.8295 67.6893C34.1978 68.1559 34.5224 68.7181 34.7923 69.3928L38.5062 67.9072C38.1094 66.9152 37.6006 66.0107 36.969 65.2107L33.8295 67.6893ZM34.8031 69.4192C35.0348 69.9755 35.1492 70.5474 35.1492 71.15H39.1492C39.1492 70.0193 38.9303 68.9245 38.4954 67.8808L34.8031 69.4192ZM35.1492 71.15V78.6H39.1492V71.15H35.1492ZM35.1492 78.6C35.1492 79.3675 35.0024 80.056 34.7216 80.6877L38.3768 82.3123C38.8961 81.144 39.1492 79.8991 39.1492 78.6H35.1492ZM34.7216 80.6877C34.4168 81.3736 34.0204 81.9504 33.535 82.4358L36.3634 85.2642C37.2114 84.4163 37.8817 83.4264 38.3768 82.3123L34.7216 80.6877ZM33.535 82.4358C33.0496 82.9212 32.4728 83.3176 31.7869 83.6224L33.4115 87.2776C34.5257 86.7824 35.5155 86.1121 36.3634 85.2642L33.535 82.4358ZM31.8446 83.5978C31.1991 83.8608 30.4904 84 29.6992 84V88C30.9747 88 32.1993 87.7725 33.3538 87.3022L31.8446 83.5978ZM29.6992 84H1.14922V88H29.6992V84ZM3.14922 86V50H-0.850781V86H3.14922ZM1.14922 52H28.3492V48H1.14922V52ZM28.3492 52C29.0738 52 29.7467 52.1431 30.3869 52.4276L32.0115 48.7724C30.8518 48.2569 29.6246 48 28.3492 48V52ZM30.4446 52.4522C31.1055 52.7214 31.6627 53.0919 32.135 53.5642L34.9634 50.7358C34.1024 49.8748 33.0929 49.2119 31.9538 48.7478L30.4446 52.4522ZM32.1699 53.5983C32.6639 54.0687 33.0366 54.6152 33.297 55.2546L37.0014 53.7454C36.5286 52.5848 35.8346 51.5646 34.9285 50.7017L32.1699 53.5983ZM33.3216 55.3123C33.6024 55.944 33.7492 56.6324 33.7492 57.4H37.7492C37.7492 56.1009 37.4961 54.856 36.9768 53.6877L33.3216 55.3123ZM33.7492 57.4V64.15H37.7492V57.4H33.7492ZM8.89922 80.2H29.2992V76.2H8.89922V80.2ZM31.2992 78.2V71.6H27.2992V78.2H31.2992ZM29.2992 69.6H8.89922V73.6H29.2992V69.6ZM6.89922 71.6V78.2H10.8992V71.6H6.89922ZM8.89922 65.8H27.8992V61.8H8.89922V65.8ZM29.8992 63.8V57.8H25.8992V63.8H29.8992ZM27.8992 55.8H8.89922V59.8H27.8992V55.8ZM6.89922 57.8V63.8H10.8992V57.8H6.89922ZM32.4469 100.6L31.6346 102.428L31.6632 102.44L31.6923 102.452L32.4469 100.6ZM34.7969 102.15L33.3827 103.564L33.3999 103.581L33.4176 103.598L34.7969 102.15ZM36.3969 104.5L34.5447 105.255L34.5565 105.284L34.5693 105.312L36.3969 104.5ZM36.3969 131.5L34.5693 130.688L34.5565 130.716L34.5447 130.745L36.3969 131.5ZM34.7969 133.85L33.4176 132.402L33.3999 132.419L33.3827 132.436L34.7969 133.85ZM32.4469 135.45L33.2015 137.302L33.2305 137.29L33.2592 137.278L32.4469 135.45ZM5.49688 135.45L4.6846 137.278L4.71325 137.29L4.74228 137.302L5.49688 135.45ZM3.14688 133.85L1.73266 135.264L1.73266 135.264L3.14688 133.85ZM1.54688 131.5L-0.305309 132.255L-0.293481 132.284L-0.280748 132.312L1.54688 131.5ZM1.54688 104.5L-0.280747 103.688L-0.29348 103.716L-0.305309 103.745L1.54688 104.5ZM3.14688 102.15L1.73266 100.736L1.73266 100.736L3.14688 102.15ZM5.49688 100.6L6.25147 102.452L6.2805 102.44L6.30915 102.428L5.49688 100.6ZM8.74688 128.2H6.74688V130.2H8.74688V128.2ZM29.1469 128.2V130.2H31.1469V128.2H29.1469ZM29.1469 107.8H31.1469V105.8H29.1469V107.8ZM8.74688 107.8V105.8H6.74688V107.8H8.74688ZM29.5969 102C30.3215 102 30.9943 102.143 31.6346 102.428L33.2592 98.7724C32.0994 98.2569 30.8723 98 29.5969 98V102ZM31.6923 102.452C32.3532 102.721 32.9103 103.092 33.3827 103.564L36.2111 100.736C35.3501 99.8748 34.3406 99.2119 33.2015 98.7478L31.6923 102.452ZM33.4176 103.598C33.9115 104.069 34.2842 104.615 34.5447 105.255L38.2491 103.745C37.7762 102.585 37.0822 101.565 36.1762 100.702L33.4176 103.598ZM34.5693 105.312C34.85 105.944 34.9969 106.632 34.9969 107.4H38.9969C38.9969 106.101 38.7437 104.856 38.2245 103.688L34.5693 105.312ZM34.9969 107.4V128.6H38.9969V107.4H34.9969ZM34.9969 128.6C34.9969 129.368 34.85 130.056 34.5693 130.688L38.2245 132.312C38.7437 131.144 38.9969 129.899 38.9969 128.6H34.9969ZM34.5447 130.745C34.2842 131.385 33.9115 131.931 33.4176 132.402L36.1762 135.298C37.0822 134.435 37.7762 133.415 38.2491 132.255L34.5447 130.745ZM33.3827 132.436C32.8973 132.921 32.3204 133.318 31.6346 133.622L33.2592 137.278C34.3733 136.782 35.3632 136.112 36.2111 135.264L33.3827 132.436ZM31.6923 133.598C31.0389 133.864 30.3458 134 29.5969 134V138C30.8479 138 32.0549 137.769 33.2015 137.302L31.6923 133.598ZM29.5969 134H8.39688V138H29.5969V134ZM8.39688 134C7.60569 134 6.89698 133.861 6.25147 133.598L4.74228 137.302C5.89677 137.773 7.1214 138 8.39688 138V134ZM6.30915 133.622C5.62331 133.318 5.04649 132.921 4.56109 132.436L1.73266 135.264C2.58059 136.112 3.57044 136.782 4.6846 137.278L6.30915 133.622ZM4.56109 132.436C4.07569 131.95 3.67932 131.374 3.3745 130.688L-0.280748 132.312C0.214435 133.426 0.884732 134.416 1.73266 135.264L4.56109 132.436ZM3.39906 130.745C3.13607 130.1 2.99688 129.391 2.99688 128.6H-1.00312C-1.00312 129.875 -0.775658 131.1 -0.305309 132.255L3.39906 130.745ZM2.99688 128.6V107.4H-1.00312V128.6H2.99688ZM2.99688 107.4C2.99688 106.609 3.13608 105.9 3.39906 105.255L-0.305309 103.745C-0.775658 104.9 -1.00312 106.125 -1.00312 107.4H2.99688ZM3.3745 105.312C3.67932 104.626 4.07569 104.05 4.56109 103.564L1.73266 100.736C0.884732 101.584 0.214435 102.574 -0.280747 103.688L3.3745 105.312ZM4.56109 103.564C5.03342 103.092 5.59056 102.721 6.25147 102.452L4.74228 98.7478C3.60319 99.2119 2.59366 99.8748 1.73266 100.736L4.56109 103.564ZM6.30915 102.428C6.9409 102.147 7.62933 102 8.39688 102V98C7.09776 98 5.85285 98.2532 4.6846 98.7724L6.30915 102.428ZM8.39688 102H29.5969V98H8.39688V102ZM8.74688 130.2H29.1469V126.2H8.74688V130.2ZM31.1469 128.2V107.8H27.1469V128.2H31.1469ZM29.1469 105.8H8.74688V109.8H29.1469V105.8ZM6.74688 107.8V128.2H10.7469V107.8H6.74688ZM8.74688 178.2H6.74688V180.2H8.74688V178.2ZM29.1469 178.2V180.2H31.1469V178.2H29.1469ZM29.1469 150V148H27.1469V150H29.1469ZM36.9969 150H38.9969V148H36.9969V150ZM36.3969 181.5L34.5693 180.688L34.5565 180.716L34.5447 180.745L36.3969 181.5ZM34.7969 183.85L33.4176 182.402L33.3999 182.419L33.3827 182.436L34.7969 183.85ZM32.4469 185.45L33.2015 187.302L33.2305 187.29L33.2592 187.278L32.4469 185.45ZM5.49688 185.45L4.6846 187.278L4.71325 187.29L4.74228 187.302L5.49688 185.45ZM3.14688 183.85L1.73266 185.264L1.73266 185.264L3.14688 183.85ZM1.54688 181.5L-0.305309 182.255L-0.293481 182.284L-0.280748 182.312L1.54688 181.5ZM0.996875 150V148H-1.00312V150H0.996875ZM8.74688 150H10.7469V148H8.74688V150ZM8.74688 180.2H29.1469V176.2H8.74688V180.2ZM31.1469 178.2V150H27.1469V178.2H31.1469ZM29.1469 152H36.9969V148H29.1469V152ZM34.9969 150V178.6H38.9969V150H34.9969ZM34.9969 178.6C34.9969 179.368 34.85 180.056 34.5693 180.688L38.2245 182.312C38.7437 181.144 38.9969 179.899 38.9969 178.6H34.9969ZM34.5447 180.745C34.2842 181.385 33.9115 181.931 33.4176 182.402L36.1762 185.298C37.0822 184.435 37.7762 183.415 38.2491 182.255L34.5447 180.745ZM33.3827 182.436C32.8973 182.921 32.3204 183.318 31.6346 183.622L33.2592 187.278C34.3733 186.782 35.3632 186.112 36.2111 185.264L33.3827 182.436ZM31.6923 183.598C31.0389 183.864 30.3458 184 29.5969 184V188C30.8479 188 32.0549 187.769 33.2015 187.302L31.6923 183.598ZM29.5969 184H8.39688V188H29.5969V184ZM8.39688 184C7.60569 184 6.89698 183.861 6.25147 183.598L4.74228 187.302C5.89677 187.773 7.1214 188 8.39688 188V184ZM6.30915 183.622C5.62331 183.318 5.04649 182.921 4.56109 182.436L1.73266 185.264C2.58059 186.112 3.57044 186.782 4.6846 187.278L6.30915 183.622ZM4.56109 182.436C4.07569 181.95 3.67932 181.374 3.3745 180.688L-0.280748 182.312C0.214435 183.426 0.884732 184.416 1.73266 185.264L4.56109 182.436ZM3.39906 180.745C3.13607 180.1 2.99688 179.391 2.99688 178.6H-1.00312C-1.00312 179.875 -0.775658 181.1 -0.305309 182.255L3.39906 180.745ZM2.99688 178.6V150H-1.00312V178.6H2.99688ZM0.996875 152H8.74688V148H0.996875V152ZM6.74688 150V178.2H10.7469V150H6.74688ZM37.0303 200H39.0303V198H37.0303V200ZM37.0303 207.8V209.8H39.0303V207.8H37.0303ZM22.9303 207.8V205.8H20.9303V207.8H22.9303ZM22.9303 236V238H24.9303V236H22.9303ZM15.1303 236H13.1303V238H15.1303V236ZM15.1303 207.8H17.1303V205.8H15.1303V207.8ZM1.03027 207.8H-0.969726V209.8H1.03027V207.8ZM1.03027 200V198H-0.969726V200H1.03027ZM35.0303 200V207.8H39.0303V200H35.0303ZM37.0303 205.8H22.9303V209.8H37.0303V205.8ZM20.9303 207.8V236H24.9303V207.8H20.9303ZM22.9303 234H15.1303V238H22.9303V234ZM17.1303 236V207.8H13.1303V236H17.1303ZM15.1303 205.8H1.03027V209.8H15.1303V205.8ZM3.03027 207.8V200H-0.969726V207.8H3.03027ZM1.03027 202H37.0303V198H1.03027V202Z" fill="white"/>
</svg>
