<svg width="38" height="236" viewBox="0 0 38 236" fill="none" xmlns="http://www.w3.org/2000/svg">
<path d="M1.00156 36H0.0015626V37H1.00156V36ZM8.75156 36V37H9.75156V36H8.75156ZM8.75156 24.4V23.4H7.75156V24.4H8.75156ZM29.1516 24.4H30.1516V23.4H29.1516V24.4ZM29.1516 36H28.1516V37H29.1516V36ZM37.0016 36V37H38.0016V36H37.0016ZM8.75156 16.6H7.75156V17.6H8.75156V16.6ZM8.75156 7.8V6.8H7.75156V7.8H8.75156ZM29.1516 7.8H30.1516V6.8H29.1516V7.8ZM29.1516 16.6V17.6H30.1516V16.6H29.1516ZM8.40156 -1C3.74928 -1 0.0015626 2.74771 0.0015626 7.4H2.00156C2.00156 3.85228 4.85385 0.999999 8.40156 0.999999V-1ZM0.0015626 7.4V36H2.00156V7.4H0.0015626ZM1.00156 37H8.75156V35H1.00156V37ZM9.75156 36V24.4H7.75156V36H9.75156ZM8.75156 25.4H29.1516V23.4H8.75156V25.4ZM28.1516 24.4V36H30.1516V24.4H28.1516ZM29.1516 37H37.0016V35H29.1516V37ZM38.0016 36V7.4H36.0016V36H38.0016ZM38.0016 7.4C38.0016 2.73896 34.1951 -1 29.5516 -1V0.999999C33.1081 0.999999 36.0016 3.86103 36.0016 7.4H38.0016ZM29.5516 -1H8.40156V0.999999H29.5516V-1ZM9.75156 16.6V7.8H7.75156V16.6H9.75156ZM8.75156 8.8H29.1516V6.8H8.75156V8.8ZM28.1516 7.8V16.6H30.1516V7.8H28.1516ZM29.1516 15.6H8.75156V17.6H29.1516V15.6ZM1.14922 50V49H0.149219V50H1.14922ZM1.14922 86H0.149219V87H1.14922V86ZM35.3992 66.45L34.4659 66.091L34.2599 66.6266L34.6184 67.0747L35.3992 66.45ZM8.89922 71.6V70.6H7.89922V71.6H8.89922ZM29.2992 71.6H30.2992V70.6H29.2992V71.6ZM29.2992 78.2V79.2H30.2992V78.2H29.2992ZM8.89922 78.2H7.89922V79.2H8.89922V78.2ZM8.89922 57.8V56.8H7.89922V57.8H8.89922ZM27.8992 57.8H28.8992V56.8H27.8992V57.8ZM27.8992 63.8V64.8H28.8992V63.8H27.8992ZM8.89922 63.8H7.89922V64.8H8.89922V63.8ZM36.7492 57.4C36.7492 52.7433 32.9471 49 28.3492 49V51C31.8513 51 34.7492 53.8567 34.7492 57.4H36.7492ZM28.3492 49H1.14922V51H28.3492V49ZM0.149219 50V86H2.14922V50H0.149219ZM1.14922 87H29.6992V85H1.14922V87ZM29.6992 87C34.3427 87 38.1492 83.261 38.1492 78.6H36.1492C36.1492 82.139 33.2557 85 29.6992 85V87ZM38.1492 78.6V71.15H36.1492V78.6H38.1492ZM38.1492 71.15C38.1492 69.1793 37.292 67.2152 36.1801 65.8253L34.6184 67.0747C35.5064 68.1848 36.1492 69.7207 36.1492 71.15H38.1492ZM36.3326 66.809C36.6438 65.9998 36.7492 65.0636 36.7492 64.15H34.7492C34.7492 64.9364 34.6547 65.6002 34.4659 66.091L36.3326 66.809ZM36.7492 64.15V57.4H34.7492V64.15H36.7492ZM8.89922 72.6H29.2992V70.6H8.89922V72.6ZM28.2992 71.6V78.2H30.2992V71.6H28.2992ZM29.2992 77.2H8.89922V79.2H29.2992V77.2ZM9.89922 78.2V71.6H7.89922V78.2H9.89922ZM8.89922 58.8H27.8992V56.8H8.89922V58.8ZM26.8992 57.8V63.8H28.8992V57.8H26.8992ZM27.8992 62.8H8.89922V64.8H27.8992V62.8ZM9.89922 63.8V57.8H7.89922V63.8H9.89922ZM8.74688 107.8V106.8H7.74688V107.8H8.74688ZM29.1469 107.8H30.1469V106.8H29.1469V107.8ZM29.1469 128.2V129.2H30.1469V128.2H29.1469ZM8.74688 128.2H7.74688V129.2H8.74688V128.2ZM8.39688 99C3.74459 99 -0.00312493 102.748 -0.00312493 107.4H1.99688C1.99688 103.852 4.84916 101 8.39688 101V99ZM-0.00312493 107.4V128.6H1.99688V107.4H-0.00312493ZM-0.00312493 128.6C-0.00312493 133.252 3.74459 137 8.39688 137V135C4.84916 135 1.99688 132.148 1.99688 128.6H-0.00312493ZM8.39688 137H29.5969V135H8.39688V137ZM29.5969 137C34.1948 137 37.9969 133.257 37.9969 128.6H35.9969C35.9969 132.143 33.099 135 29.5969 135V137ZM37.9969 128.6V107.4H35.9969V128.6H37.9969ZM37.9969 107.4C37.9969 102.743 34.1948 99 29.5969 99V101C33.099 101 35.9969 103.857 35.9969 107.4H37.9969ZM29.5969 99H8.39688V101H29.5969V99ZM8.74688 108.8H29.1469V106.8H8.74688V108.8ZM28.1469 107.8V128.2H30.1469V107.8H28.1469ZM29.1469 127.2H8.74688V129.2H29.1469V127.2ZM9.74688 128.2V107.8H7.74688V128.2H9.74688ZM8.74688 150H9.74688V149H8.74688V150ZM0.996875 150V149H-0.00312493V150H0.996875ZM36.9969 150H37.9969V149H36.9969V150ZM29.1469 150V149H28.1469V150H29.1469ZM29.1469 178.2V179.2H30.1469V178.2H29.1469ZM8.74688 178.2H7.74688V179.2H8.74688V178.2ZM8.74688 149H0.996875V151H8.74688V149ZM-0.00312493 150V178.6H1.99688V150H-0.00312493ZM-0.00312493 178.6C-0.00312493 183.252 3.74459 187 8.39688 187V185C4.84916 185 1.99688 182.148 1.99688 178.6H-0.00312493ZM8.39688 187H29.5969V185H8.39688V187ZM29.5969 187C34.1948 187 37.9969 183.257 37.9969 178.6H35.9969C35.9969 182.143 33.099 185 29.5969 185V187ZM37.9969 178.6V150H35.9969V178.6H37.9969ZM36.9969 149H29.1469V151H36.9969V149ZM28.1469 150V178.2H30.1469V150H28.1469ZM29.1469 177.2H8.74688V179.2H29.1469V177.2ZM9.74688 178.2V150H7.74688V178.2H9.74688ZM1.03027 200V199H0.0302735V200H1.03027ZM1.03027 207.8H0.0302735V208.8H1.03027V207.8ZM15.1303 207.8H16.1303V206.8H15.1303V207.8ZM15.1303 236H14.1303V237H15.1303V236ZM22.9303 236V237H23.9303V236H22.9303ZM22.9303 207.8V206.8H21.9303V207.8H22.9303ZM37.0303 207.8V208.8H38.0303V207.8H37.0303ZM37.0303 200H38.0303V199H37.0303V200ZM0.0302735 200V207.8H2.03027V200H0.0302735ZM1.03027 208.8H15.1303V206.8H1.03027V208.8ZM14.1303 207.8V236H16.1303V207.8H14.1303ZM15.1303 237H22.9303V235H15.1303V237ZM23.9303 236V207.8H21.9303V236H23.9303ZM22.9303 208.8H37.0303V206.8H22.9303V208.8ZM38.0303 207.8V200H36.0303V207.8H38.0303ZM37.0303 199H1.03027V201H37.0303V199Z" fill="white"/>
</svg>
