<svg width="268" height="68" viewBox="0 0 268 68" fill="none" xmlns="http://www.w3.org/2000/svg">
<g filter="url(#filter0_d_84_2489)">
<path d="M63.7375 13.752V15.752H65.7375V13.752H63.7375ZM63.7375 0.959998H65.7375V-1.04H63.7375V0.959998ZM63.7375 60V62H65.7375V60H63.7375ZM63.7375 47.208H65.7375V45.208H63.7375V47.208ZM17.5715 47.208H15.5715V49.208H17.5715V47.208ZM17.5715 13.752V11.752H15.5715V13.752H17.5715ZM65.7375 13.752V0.959998H61.7375V13.752H65.7375ZM63.7375 -1.04H16.9975V2.96H63.7375V-1.04ZM16.9975 -1.04C9.16896 -1.04 2.86153 5.26743 2.86153 13.096H6.86153C6.86153 7.47657 11.3781 2.96 16.9975 2.96V-1.04ZM2.86153 13.096V47.864H6.86153V13.096H2.86153ZM2.86153 47.864C2.86153 55.6926 9.16896 62 16.9975 62V58C11.3781 58 6.86153 53.4834 6.86153 47.864H2.86153ZM16.9975 62H63.7375V58H16.9975V62ZM65.7375 60V47.208H61.7375V60H65.7375ZM63.7375 45.208H17.5715V49.208H63.7375V45.208ZM19.5715 47.208V13.752H15.5715V47.208H19.5715ZM17.5715 15.752H63.7375V11.752H17.5715V15.752ZM72.3693 60H70.3693V62H72.3693V60ZM131.409 60V62H133.409V60H131.409ZM131.409 47.208H133.409V45.208H131.409V47.208ZM85.0793 47.208H83.0793V49.208H85.0793V47.208ZM85.0793 0.877999H87.0793V-1.122H85.0793V0.877999ZM72.3693 0.877999V-1.122H70.3693V0.877999H72.3693ZM72.3693 62H131.409V58H72.3693V62ZM133.409 60V47.208H129.409V60H133.409ZM131.409 45.208H85.0793V49.208H131.409V45.208ZM87.0793 47.208V0.877999H83.0793V47.208H87.0793ZM85.0793 -1.122H72.3693V2.878H85.0793V-1.122ZM70.3693 0.877999V60H74.3693V0.877999H70.3693ZM148.736 0.959998H150.736V-1.04H148.736V0.959998ZM136.026 0.959998V-1.04H134.026V0.959998H136.026ZM195.066 0.959998H197.066V-1.04H195.066V0.959998ZM182.192 0.959998V-1.04H180.192V0.959998H182.192ZM182.192 47.208V49.208H184.192V47.208H182.192ZM148.736 47.208H146.736V49.208H148.736V47.208ZM148.736 -1.04H136.026V2.96H148.736V-1.04ZM134.026 0.959998V47.864H138.026V0.959998H134.026ZM134.026 47.864C134.026 55.6926 140.333 62 148.162 62V58C142.542 58 138.026 53.4834 138.026 47.864H134.026ZM148.162 62H182.93V58H148.162V62ZM182.93 62C190.667 62 197.066 55.7014 197.066 47.864H193.066C193.066 53.4747 188.476 58 182.93 58V62ZM197.066 47.864V0.959998H193.066V47.864H197.066ZM195.066 -1.04H182.192V2.96H195.066V-1.04ZM180.192 0.959998V47.208H184.192V0.959998H180.192ZM182.192 45.208H148.736V49.208H182.192V45.208ZM150.736 47.208V0.959998H146.736V47.208H150.736ZM204.342 0.959998V-1.04H202.342V0.959998H204.342ZM204.342 60H202.342V62H204.342V60ZM260.512 27.938L258.645 27.22L258.233 28.2912L258.95 29.1874L260.512 27.938ZM217.052 36.384V34.384H215.052V36.384H217.052ZM250.508 36.384H252.508V34.384H250.508V36.384ZM250.508 47.208V49.208H252.508V47.208H250.508ZM217.052 47.208H215.052V49.208H217.052V47.208ZM217.052 13.752V11.752H215.052V13.752H217.052ZM248.212 13.752H250.212V11.752H248.212V13.752ZM248.212 23.592V25.592H250.212V23.592H248.212ZM217.052 23.592H215.052V25.592H217.052V23.592ZM263.086 13.096C263.086 5.25865 256.688 -1.04 248.95 -1.04V2.96C254.496 2.96 259.086 7.48535 259.086 13.096H263.086ZM248.95 -1.04H204.342V2.96H248.95V-1.04ZM202.342 0.959998V60H206.342V0.959998H202.342ZM204.342 62H251.164V58H204.342V62ZM251.164 62C258.975 62 265.382 55.7101 265.382 47.864H261.382C261.382 53.4659 256.801 58 251.164 58V62ZM265.382 47.864V35.646H261.382V47.864H265.382ZM265.382 35.646C265.382 32.3165 263.938 29.0185 262.074 26.6886L258.95 29.1874C260.366 30.9575 261.382 33.3995 261.382 35.646H265.382ZM262.379 28.656C262.911 27.2717 263.086 25.6872 263.086 24.166H259.086C259.086 25.4328 258.933 26.4723 258.645 27.22L262.379 28.656ZM263.086 24.166V13.096H259.086V24.166H263.086ZM217.052 38.384H250.508V34.384H217.052V38.384ZM248.508 36.384V47.208H252.508V36.384H248.508ZM250.508 45.208H217.052V49.208H250.508V45.208ZM219.052 47.208V36.384H215.052V47.208H219.052ZM217.052 15.752H248.212V11.752H217.052V15.752ZM246.212 13.752V23.592H250.212V13.752H246.212ZM248.212 21.592H217.052V25.592H248.212V21.592ZM219.052 23.592V13.752H215.052V23.592H219.052Z" fill="white"/>
</g>
<defs>
<filter id="filter0_d_84_2489" x="0.861328" y="0.878906" width="266.521" height="67.1211" filterUnits="userSpaceOnUse" color-interpolation-filters="sRGB">
<feFlood flood-opacity="0" result="BackgroundImageFix"/>
<feColorMatrix in="SourceAlpha" type="matrix" values="0 0 0 0 0 0 0 0 0 0 0 0 0 0 0 0 0 0 127 0" result="hardAlpha"/>
<feOffset dy="4"/>
<feGaussianBlur stdDeviation="2"/>
<feComposite in2="hardAlpha" operator="out"/>
<feColorMatrix type="matrix" values="0 0 0 0 0 0 0 0 0 0 0 0 0 0 0 0 0 0 0.25 0"/>
<feBlend mode="normal" in2="BackgroundImageFix" result="effect1_dropShadow_84_2489"/>
<feBlend mode="normal" in="SourceGraphic" in2="effect1_dropShadow_84_2489" result="shape"/>
</filter>
</defs>
</svg>
