<svg width="206" height="47" viewBox="0 0 206 47" fill="none" xmlns="http://www.w3.org/2000/svg">
<path d="M47.31 10.34V0.199998H10.26C4.93 0.199998 0.64 4.49 0.64 9.82V37.38C0.64 42.71 4.93 47 10.26 47H47.31V36.86H10.715V10.34H47.31ZM203.745 9.82C203.745 4.49 199.39 0.199998 194.125 0.199998H158.765V47H195.88C201.21 47 205.565 42.71 205.565 37.38V27.695C205.565 25.485 204.59 23.21 203.29 21.585C203.615 20.74 203.745 19.7 203.745 18.595V9.82ZM168.84 28.28H195.36V36.86H168.84V28.28ZM168.84 10.34H193.54V18.14H168.84V10.34Z" fill="white"/>
<path d="M54.1523 47H100.952V36.86H64.2273V0.134999H54.1523V47ZM114.687 0.199998H104.612V37.38C104.612 42.71 108.902 47 114.232 47H141.792C147.057 47 151.412 42.71 151.412 37.38V0.199998H141.207V36.86H114.687V0.199998Z" fill="#6D2FF0"/>
</svg>
