<svg width="317" height="71" viewBox="0 0 317 71" fill="none" xmlns="http://www.w3.org/2000/svg">
<path d="M56.502 13.828V2.44H14.892C8.906 2.44 4.088 7.258 4.088 13.244V44.196C4.088 50.182 8.906 55 14.892 55H56.502V43.612H15.403V13.828H56.502ZM232.19 13.244C232.19 7.258 227.299 2.44 221.386 2.44H181.674V55H223.357C229.343 55 234.234 50.182 234.234 44.196V33.319C234.234 30.837 233.139 28.282 231.679 26.457C232.044 25.508 232.19 24.34 232.19 23.099V13.244ZM192.989 33.976H222.773V43.612H192.989V33.976ZM192.989 13.828H220.729V22.588H192.989V13.828Z" fill="white"/>
<path d="M64.1864 55H116.746V43.612H75.5014V2.367H64.1864V55ZM132.171 2.44H120.856V44.196C120.856 50.182 125.674 55 131.66 55H162.612C168.525 55 173.416 50.182 173.416 44.196V2.44H161.955V43.612H132.171V2.44Z" fill="url(#paint0_linear_107_122)"/>
<path d="M65.161 55H117.721V43.612H76.476V2.367H65.161V55ZM133.146 2.44H121.831V44.196C121.831 50.182 126.649 55 132.635 55H163.587C169.5 55 174.391 50.182 174.391 44.196V2.44H162.93V43.612H133.146V2.44Z" fill="url(#paint1_linear_107_122)"/>
<path d="M65.161 55H63.161V57H65.161V55ZM117.721 55V57H119.721V55H117.721ZM117.721 43.612H119.721V41.612H117.721V43.612ZM76.476 43.612H74.476V45.612H76.476V43.612ZM76.476 2.367H78.476V0.366999H76.476V2.367ZM65.161 2.367V0.366999H63.161V2.367H65.161ZM65.161 57H117.721V53H65.161V57ZM119.721 55V43.612H115.721V55H119.721ZM117.721 41.612H76.476V45.612H117.721V41.612ZM78.476 43.612V2.367H74.476V43.612H78.476ZM76.476 0.366999H65.161V4.367H76.476V0.366999ZM63.161 2.367V55H67.161V2.367H63.161ZM133.146 2.44H135.146V0.439998H133.146V2.44ZM121.831 2.44V0.439998H119.831V2.44H121.831ZM174.391 2.44H176.391V0.439998H174.391V2.44ZM162.93 2.44V0.439998H160.93V2.44H162.93ZM162.93 43.612V45.612H164.93V43.612H162.93ZM133.146 43.612H131.146V45.612H133.146V43.612ZM133.146 0.439998H121.831V4.44H133.146V0.439998ZM119.831 2.44V44.196H123.831V2.44H119.831ZM119.831 44.196C119.831 51.2866 125.544 57 132.635 57V53C127.753 53 123.831 49.0774 123.831 44.196H119.831ZM132.635 57H163.587V53H132.635V57ZM163.587 57C170.595 57 176.391 51.2954 176.391 44.196H172.391C172.391 49.0686 168.404 53 163.587 53V57ZM176.391 44.196V2.44H172.391V44.196H176.391ZM174.391 0.439998H162.93V4.44H174.391V0.439998ZM160.93 2.44V43.612H164.93V2.44H160.93ZM162.93 41.612H133.146V45.612H162.93V41.612ZM135.146 43.612V2.44H131.146V43.612H135.146Z" fill="white"/>
<defs>
<linearGradient id="paint0_linear_107_122" x1="158.5" y1="0" x2="158.5" y2="71" gradientUnits="userSpaceOnUse">
<stop stop-color="#09FFF1"/>
<stop offset="0.46875" stop-color="#4E00FF"/>
<stop offset="1" stop-color="#9600FF"/>
</linearGradient>
<linearGradient id="paint1_linear_107_122" x1="121.5" y1="0" x2="121.5" y2="71" gradientUnits="userSpaceOnUse">
<stop stop-color="#09FFF1"/>
<stop offset="0.208333" stop-color="#4E00FF"/>
<stop offset="0.427083" stop-color="#9600FF"/>
<stop offset="0.947917" stop-color="#FAFF00"/>
</linearGradient>
</defs>
</svg>
