<svg width="38" height="186" viewBox="0 0 38 186" fill="none" xmlns="http://www.w3.org/2000/svg">
<path d="M16.3568 36H15.3568V37H16.3568V36ZM24.1568 36V37H25.1568V36H24.1568ZM24.1568 -1.43051e-06H25.1568V-1H24.1568V-1.43051e-06ZM16.3568 -1.43051e-06V-1H15.3568V-1.43051e-06H16.3568ZM16.3568 37H24.1568V35H16.3568V37ZM25.1568 36V-1.43051e-06H23.1568V36H25.1568ZM24.1568 -1H16.3568V0.999999H24.1568V-1ZM15.3568 -1.43051e-06V36H17.3568V-1.43051e-06H15.3568ZM29.1492 74L28.3834 74.643L30.1492 76.7463V74H29.1492ZM8.99922 50L9.76508 49.357L9.46535 49H8.99922V50ZM0.999219 50V49H-0.000781164V50H0.999219ZM0.999219 86H-0.000781164V87H0.999219V86ZM8.74922 86V87H9.74922V86H8.74922ZM8.74922 61.9L9.51483 61.2567L7.74922 59.1554V61.9H8.74922ZM28.9992 86L28.2336 86.6433L28.5333 87H28.9992V86ZM36.9992 86V87H37.9992V86H36.9992ZM36.9992 50H37.9992V49H36.9992V50ZM29.1492 50V49H28.1492V50H29.1492ZM29.9151 73.357L9.76508 49.357L8.23336 50.643L28.3834 74.643L29.9151 73.357ZM8.99922 49H0.999219V51H8.99922V49ZM-0.000781164 50V86H1.99922V50H-0.000781164ZM0.999219 87H8.74922V85H0.999219V87ZM9.74922 86V61.9H7.74922V86H9.74922ZM7.98361 62.5433L28.2336 86.6433L29.7648 85.3567L9.51483 61.2567L7.98361 62.5433ZM28.9992 87H36.9992V85H28.9992V87ZM37.9992 86V50H35.9992V86H37.9992ZM36.9992 49H29.1492V51H36.9992V49ZM28.1492 50V74H30.1492V50H28.1492ZM3.83359 100V99H2.83359V100H3.83359ZM3.83359 136H2.83359V137H3.83359V136ZM11.6836 136V137H12.6836V136H11.6836ZM11.6836 121.9V120.9H10.6836V121.9H11.6836ZM32.1336 121.9V122.9H33.1336V121.9H32.1336ZM32.1336 114.1H33.1336V113.1H32.1336V114.1ZM11.6836 114.1H10.6836V115.1H11.6836V114.1ZM11.6836 107.8V106.8H10.6836V107.8H11.6836ZM37.0836 107.8V108.8H38.0836V107.8H37.0836ZM37.0836 100H38.0836V99H37.0836V100ZM2.83359 100V136H4.83359V100H2.83359ZM3.83359 137H11.6836V135H3.83359V137ZM12.6836 136V121.9H10.6836V136H12.6836ZM11.6836 122.9H32.1336V120.9H11.6836V122.9ZM33.1336 121.9V114.1H31.1336V121.9H33.1336ZM32.1336 113.1H11.6836V115.1H32.1336V113.1ZM12.6836 114.1V107.8H10.6836V114.1H12.6836ZM11.6836 108.8H37.0836V106.8H11.6836V108.8ZM38.0836 107.8V100H36.0836V107.8H38.0836ZM37.0836 99H3.83359V101H37.0836V99ZM8.74688 157.8V156.8H7.74688V157.8H8.74688ZM29.1469 157.8H30.1469V156.8H29.1469V157.8ZM29.1469 178.2V179.2H30.1469V178.2H29.1469ZM8.74688 178.2H7.74688V179.2H8.74688V178.2ZM8.39688 149C3.74459 149 -0.00312493 152.748 -0.00312493 157.4H1.99688C1.99688 153.852 4.84916 151 8.39688 151V149ZM-0.00312493 157.4V178.6H1.99688V157.4H-0.00312493ZM-0.00312493 178.6C-0.00312493 183.252 3.74459 187 8.39688 187V185C4.84916 185 1.99688 182.148 1.99688 178.6H-0.00312493ZM8.39688 187H29.5969V185H8.39688V187ZM29.5969 187C34.1948 187 37.9969 183.257 37.9969 178.6H35.9969C35.9969 182.143 33.099 185 29.5969 185V187ZM37.9969 178.6V157.4H35.9969V178.6H37.9969ZM37.9969 157.4C37.9969 152.743 34.1948 149 29.5969 149V151C33.099 151 35.9969 153.857 35.9969 157.4H37.9969ZM29.5969 149H8.39688V151H29.5969V149ZM8.74688 158.8H29.1469V156.8H8.74688V158.8ZM28.1469 157.8V178.2H30.1469V157.8H28.1469ZM29.1469 177.2H8.74688V179.2H29.1469V177.2ZM9.74688 178.2V157.8H7.74688V178.2H9.74688Z" fill="white"/>
</svg>
