<svg width="38" height="186" viewBox="0 0 38 186" fill="none" xmlns="http://www.w3.org/2000/svg">
<path d="M16.3568 36H14.3568V38H16.3568V36ZM24.1568 36V38H26.1568V36H24.1568ZM24.1568 -1.43051e-06H26.1568V-2H24.1568V-1.43051e-06ZM16.3568 -1.43051e-06V-2H14.3568V-1.43051e-06H16.3568ZM16.3568 38H24.1568V34H16.3568V38ZM26.1568 36V-1.43051e-06H22.1568V36H26.1568ZM24.1568 -2H16.3568V2H24.1568V-2ZM14.3568 -1.43051e-06V36H18.3568V-1.43051e-06H14.3568ZM29.1492 74L27.6175 75.286L31.1492 79.4925V74H29.1492ZM8.99922 50L10.5309 48.714L9.93149 48H8.99922V50ZM0.999219 50V48H-1.00078V50H0.999219ZM0.999219 86H-1.00078V88H0.999219V86ZM8.74922 86V88H10.7492V86H8.74922ZM8.74922 61.9L10.2804 60.6134L6.74922 56.4108V61.9H8.74922ZM28.9992 86L27.468 87.2866L28.0674 88H28.9992V86ZM36.9992 86V88H38.9992V86H36.9992ZM36.9992 50H38.9992V48H36.9992V50ZM29.1492 50V48H27.1492V50H29.1492ZM30.6809 72.714L10.5309 48.714L7.4675 51.286L27.6175 75.286L30.6809 72.714ZM8.99922 48H0.999219V52H8.99922V48ZM-1.00078 50V86H2.99922V50H-1.00078ZM0.999219 88H8.74922V84H0.999219V88ZM10.7492 86V61.9H6.74922V86H10.7492ZM7.218 63.1866L27.468 87.2866L30.5304 84.7134L10.2804 60.6134L7.218 63.1866ZM28.9992 88H36.9992V84H28.9992V88ZM38.9992 86V50H34.9992V86H38.9992ZM36.9992 48H29.1492V52H36.9992V48ZM27.1492 50V74H31.1492V50H27.1492ZM3.83359 100V98H1.83359V100H3.83359ZM3.83359 136H1.83359V138H3.83359V136ZM11.6836 136V138H13.6836V136H11.6836ZM11.6836 121.9V119.9H9.68359V121.9H11.6836ZM32.1336 121.9V123.9H34.1336V121.9H32.1336ZM32.1336 114.1H34.1336V112.1H32.1336V114.1ZM11.6836 114.1H9.68359V116.1H11.6836V114.1ZM11.6836 107.8V105.8H9.68359V107.8H11.6836ZM37.0836 107.8V109.8H39.0836V107.8H37.0836ZM37.0836 100H39.0836V98H37.0836V100ZM1.83359 100V136H5.83359V100H1.83359ZM3.83359 138H11.6836V134H3.83359V138ZM13.6836 136V121.9H9.68359V136H13.6836ZM11.6836 123.9H32.1336V119.9H11.6836V123.9ZM34.1336 121.9V114.1H30.1336V121.9H34.1336ZM32.1336 112.1H11.6836V116.1H32.1336V112.1ZM13.6836 114.1V107.8H9.68359V114.1H13.6836ZM11.6836 109.8H37.0836V105.8H11.6836V109.8ZM39.0836 107.8V100H35.0836V107.8H39.0836ZM37.0836 98H3.83359V102H37.0836V98ZM8.74688 157.8V155.8H6.74688V157.8H8.74688ZM29.1469 157.8H31.1469V155.8H29.1469V157.8ZM29.1469 178.2V180.2H31.1469V178.2H29.1469ZM8.74688 178.2H6.74688V180.2H8.74688V178.2ZM8.39688 148C3.19231 148 -1.00312 152.195 -1.00312 157.4H2.99688C2.99688 154.405 5.40144 152 8.39688 152V148ZM-1.00312 157.4V178.6H2.99688V157.4H-1.00312ZM-1.00312 178.6C-1.00312 183.805 3.19231 188 8.39688 188V184C5.40144 184 2.99688 181.595 2.99688 178.6H-1.00312ZM8.39688 188H29.5969V184H8.39688V188ZM29.5969 188C34.7426 188 38.9969 183.813 38.9969 178.6H34.9969C34.9969 181.587 32.5511 184 29.5969 184V188ZM38.9969 178.6V157.4H34.9969V178.6H38.9969ZM38.9969 157.4C38.9969 152.187 34.7426 148 29.5969 148V152C32.5511 152 34.9969 154.413 34.9969 157.4H38.9969ZM29.5969 148H8.39688V152H29.5969V148ZM8.74688 159.8H29.1469V155.8H8.74688V159.8ZM27.1469 157.8V178.2H31.1469V157.8H27.1469ZM29.1469 176.2H8.74688V180.2H29.1469V176.2ZM10.7469 178.2V157.8H6.74688V178.2H10.7469Z" fill="white"/>
</svg>
