<svg width="260" height="60" viewBox="0 0 260 60" fill="none" xmlns="http://www.w3.org/2000/svg">
<path d="M59.7375 13.752V15.752H61.7375V13.752H59.7375ZM59.7375 0.959998H61.7375V-1.04H59.7375V0.959998ZM59.7375 60V62H61.7375V60H59.7375ZM59.7375 47.208H61.7375V45.208H59.7375V47.208ZM13.5715 47.208H11.5715V49.208H13.5715V47.208ZM13.5715 13.752V11.752H11.5715V13.752H13.5715ZM61.7375 13.752V0.959998H57.7375V13.752H61.7375ZM59.7375 -1.04H12.9975V2.96H59.7375V-1.04ZM12.9975 -1.04C5.16896 -1.04 -1.13847 5.26743 -1.13847 13.096H2.86153C2.86153 7.47657 7.3781 2.96 12.9975 2.96V-1.04ZM-1.13847 13.096V47.864H2.86153V13.096H-1.13847ZM-1.13847 47.864C-1.13847 55.6926 5.16896 62 12.9975 62V58C7.3781 58 2.86153 53.4834 2.86153 47.864H-1.13847ZM12.9975 62H59.7375V58H12.9975V62ZM61.7375 60V47.208H57.7375V60H61.7375ZM59.7375 45.208H13.5715V49.208H59.7375V45.208ZM15.5715 47.208V13.752H11.5715V47.208H15.5715ZM13.5715 15.752H59.7375V11.752H13.5715V15.752ZM68.3693 60H66.3693V62H68.3693V60ZM127.409 60V62H129.409V60H127.409ZM127.409 47.208H129.409V45.208H127.409V47.208ZM81.0793 47.208H79.0793V49.208H81.0793V47.208ZM81.0793 0.877999H83.0793V-1.122H81.0793V0.877999ZM68.3693 0.877999V-1.122H66.3693V0.877999H68.3693ZM68.3693 62H127.409V58H68.3693V62ZM129.409 60V47.208H125.409V60H129.409ZM127.409 45.208H81.0793V49.208H127.409V45.208ZM83.0793 47.208V0.877999H79.0793V47.208H83.0793ZM81.0793 -1.122H68.3693V2.878H81.0793V-1.122ZM66.3693 0.877999V60H70.3693V0.877999H66.3693ZM144.736 0.959998H146.736V-1.04H144.736V0.959998ZM132.026 0.959998V-1.04H130.026V0.959998H132.026ZM191.066 0.959998H193.066V-1.04H191.066V0.959998ZM178.192 0.959998V-1.04H176.192V0.959998H178.192ZM178.192 47.208V49.208H180.192V47.208H178.192ZM144.736 47.208H142.736V49.208H144.736V47.208ZM144.736 -1.04H132.026V2.96H144.736V-1.04ZM130.026 0.959998V47.864H134.026V0.959998H130.026ZM130.026 47.864C130.026 55.6926 136.333 62 144.162 62V58C138.542 58 134.026 53.4834 134.026 47.864H130.026ZM144.162 62H178.93V58H144.162V62ZM178.93 62C186.667 62 193.066 55.7014 193.066 47.864H189.066C189.066 53.4747 184.476 58 178.93 58V62ZM193.066 47.864V0.959998H189.066V47.864H193.066ZM191.066 -1.04H178.192V2.96H191.066V-1.04ZM176.192 0.959998V47.208H180.192V0.959998H176.192ZM178.192 45.208H144.736V49.208H178.192V45.208ZM146.736 47.208V0.959998H142.736V47.208H146.736ZM200.342 0.959998V-1.04H198.342V0.959998H200.342ZM200.342 60H198.342V62H200.342V60ZM256.512 27.938L254.645 27.22L254.233 28.2912L254.95 29.1874L256.512 27.938ZM213.052 36.384V34.384H211.052V36.384H213.052ZM246.508 36.384H248.508V34.384H246.508V36.384ZM246.508 47.208V49.208H248.508V47.208H246.508ZM213.052 47.208H211.052V49.208H213.052V47.208ZM213.052 13.752V11.752H211.052V13.752H213.052ZM244.212 13.752H246.212V11.752H244.212V13.752ZM244.212 23.592V25.592H246.212V23.592H244.212ZM213.052 23.592H211.052V25.592H213.052V23.592ZM259.086 13.096C259.086 5.25865 252.688 -1.04 244.95 -1.04V2.96C250.496 2.96 255.086 7.48535 255.086 13.096H259.086ZM244.95 -1.04H200.342V2.96H244.95V-1.04ZM198.342 0.959998V60H202.342V0.959998H198.342ZM200.342 62H247.164V58H200.342V62ZM247.164 62C254.975 62 261.382 55.7101 261.382 47.864H257.382C257.382 53.4659 252.801 58 247.164 58V62ZM261.382 47.864V35.646H257.382V47.864H261.382ZM261.382 35.646C261.382 32.3165 259.938 29.0185 258.074 26.6886L254.95 29.1874C256.366 30.9575 257.382 33.3995 257.382 35.646H261.382ZM258.379 28.656C258.911 27.2717 259.086 25.6872 259.086 24.166H255.086C255.086 25.4328 254.933 26.4723 254.645 27.22L258.379 28.656ZM259.086 24.166V13.096H255.086V24.166H259.086ZM213.052 38.384H246.508V34.384H213.052V38.384ZM244.508 36.384V47.208H248.508V36.384H244.508ZM246.508 45.208H213.052V49.208H246.508V45.208ZM215.052 47.208V36.384H211.052V47.208H215.052ZM213.052 15.752H244.212V11.752H213.052V15.752ZM242.212 13.752V23.592H246.212V13.752H242.212ZM244.212 21.592H213.052V25.592H244.212V21.592ZM215.052 23.592V13.752H211.052V23.592H215.052Z" fill="white"/>
</svg>
