<svg width="161" height="206" viewBox="0 0 161 206" fill="none" xmlns="http://www.w3.org/2000/svg">
<path d="M121.913 95.5458C122.266 94.8664 122.428 94.1037 122.381 93.3394C122.333 92.5751 122.079 91.8381 121.644 91.2075L83.8469 36.6115C83.4604 36.0537 82.9445 35.5978 82.3432 35.2829C81.742 34.968 81.0734 34.8035 80.3948 34.8035C79.7161 34.8035 79.0475 34.968 78.4463 35.2829C77.8451 35.5978 77.3291 36.0537 76.9426 36.6115L39.1454 91.2075C38.7064 91.8369 38.4485 92.5747 38.4 93.3406C38.3515 94.1064 38.5141 94.8709 38.8703 95.5506C39.2264 96.2304 39.7623 96.7993 40.4195 97.1954C41.0768 97.5915 41.8302 97.7995 42.5976 97.7968L118.192 97.7968C118.959 97.797 119.711 97.5873 120.367 97.1905C121.022 96.7937 121.557 96.2249 121.913 95.5458ZM50.6148 89.3975L80.3948 46.38L110.175 89.3975L50.6148 89.3975Z" fill="white"/>
<path d="M121.986 130.06C122.339 129.365 122.501 128.585 122.453 127.803C122.406 127.021 122.151 126.267 121.717 125.622L83.9197 69.766C83.5332 69.1952 83.0172 68.7288 82.416 68.4067C81.8148 68.0845 81.1462 67.9162 80.4675 67.9162C79.7888 67.9162 79.1203 68.0845 78.519 68.4067C77.9178 68.7288 77.4019 69.1952 77.0154 69.766L39.2182 125.622C38.7791 126.266 38.5213 127.021 38.4727 127.804C38.4242 128.588 38.5869 129.37 38.943 130.065C39.2991 130.761 39.835 131.343 40.4923 131.748C41.1495 132.153 41.9029 132.366 42.6703 132.363L118.265 132.363C119.031 132.363 119.783 132.149 120.439 131.743C121.095 131.337 121.63 130.755 121.986 130.06ZM50.6875 123.77L80.4675 79.7599L110.248 123.77L50.6875 123.77Z" fill="white" fill-opacity="0.5"/>
<path d="M121.521 166.741C121.874 166.062 122.036 165.299 121.989 164.535C121.941 163.77 121.687 163.033 121.252 162.403L83.4548 107.807C83.0683 107.249 82.5524 106.793 81.9512 106.478C81.3499 106.163 80.6814 105.999 80.0027 105.999C79.324 105.999 78.6554 106.163 78.0542 106.478C77.453 106.793 76.937 107.249 76.5505 107.807L38.7533 162.403C38.3143 163.032 38.0564 163.77 38.0079 164.536C37.9594 165.302 38.122 166.066 38.4782 166.746C38.8343 167.426 39.3702 167.995 40.0274 168.391C40.6847 168.787 41.4381 168.995 42.2055 168.992L117.8 168.992C118.566 168.992 119.319 168.783 119.974 168.386C120.63 167.989 121.165 167.42 121.521 166.741ZM50.2227 160.593L80.0027 117.575L109.783 160.593L50.2227 160.593Z" fill="white" fill-opacity="0.25"/>
</svg>
